<svg width="45" height="19" viewBox="0 0 45 19" fill="none" xmlns="http://www.w3.org/2000/svg">
<mask id="path-1-outside-1_287_585" maskUnits="userSpaceOnUse" x="0" y="2" width="45" height="17" fill="black">
<rect fill="white" y="2" width="45" height="17"/>
<path d="M5.424 15.16C4.44267 15.16 3.62667 14.9787 2.976 14.616C2.336 14.2533 1.85067 13.7467 1.52 13.096C1.18933 12.4453 1.008 11.688 0.976 10.824C0.965333 10.3867 0.96 9.91733 0.96 9.416C0.96 8.91467 0.965333 8.43467 0.976 7.976C1.008 7.112 1.18933 6.35467 1.52 5.704C1.85067 5.05333 2.336 4.54667 2.976 4.184C3.62667 3.82133 4.44267 3.64 5.424 3.64C6.16 3.64 6.80533 3.74133 7.36 3.944C7.91467 4.14667 8.37333 4.41867 8.736 4.76C9.10933 5.10133 9.392 5.48533 9.584 5.912C9.776 6.328 9.88267 6.76 9.904 7.208C9.91467 7.304 9.88267 7.384 9.808 7.448C9.744 7.512 9.664 7.544 9.568 7.544H8.688C8.592 7.544 8.50667 7.51733 8.432 7.464C8.368 7.41067 8.32 7.31467 8.288 7.176C8.10667 6.344 7.76533 5.77333 7.264 5.464C6.77333 5.15467 6.16 5 5.424 5C4.56 5 3.87733 5.24533 3.376 5.736C2.87467 6.216 2.608 6.98933 2.576 8.056C2.544 8.93067 2.544 9.82667 2.576 10.744C2.608 11.8107 2.87467 12.5893 3.376 13.08C3.87733 13.56 4.56 13.8 5.424 13.8C6.16 13.8 6.77333 13.6453 7.264 13.336C7.76533 13.0267 8.10667 12.456 8.288 11.624C8.32 11.4853 8.368 11.3893 8.432 11.336C8.50667 11.2827 8.592 11.256 8.688 11.256H9.568C9.664 11.256 9.744 11.288 9.808 11.352C9.88267 11.4053 9.91467 11.48 9.904 11.576C9.88267 12.024 9.776 12.4613 9.584 12.888C9.392 13.3147 9.10933 13.6987 8.736 14.04C8.37333 14.3813 7.91467 14.6533 7.36 14.856C6.80533 15.0587 6.16 15.16 5.424 15.16ZM14.1603 15.16C13.6269 15.16 13.1416 15.0533 12.7043 14.84C12.2669 14.6267 11.9149 14.3387 11.6483 13.976C11.3816 13.6133 11.2483 13.2027 11.2483 12.744C11.2483 12.008 11.5469 11.4213 12.1443 10.984C12.7416 10.5467 13.5203 10.2587 14.4803 10.12L16.8643 9.784V9.32C16.8643 8.808 16.7149 8.408 16.4163 8.12C16.1283 7.832 15.6536 7.688 14.9923 7.688C14.5229 7.688 14.1389 7.784 13.8403 7.976C13.5416 8.168 13.3336 8.41333 13.2163 8.712C13.1523 8.872 13.0403 8.952 12.8803 8.952H12.1603C12.0429 8.952 11.9523 8.92 11.8883 8.856C11.8349 8.78133 11.8083 8.696 11.8083 8.6C11.8083 8.44 11.8669 8.24267 11.9843 8.008C12.1123 7.77333 12.3043 7.544 12.5603 7.32C12.8163 7.096 13.1416 6.90933 13.5363 6.76C13.9416 6.6 14.4323 6.52 15.0083 6.52C15.6483 6.52 16.1869 6.60533 16.6243 6.776C17.0616 6.936 17.4029 7.15467 17.6483 7.432C17.9043 7.70933 18.0856 8.024 18.1923 8.376C18.3096 8.728 18.3683 9.08533 18.3683 9.448V14.632C18.3683 14.7387 18.3309 14.8293 18.2563 14.904C18.1923 14.968 18.1069 15 18.0003 15H17.2643C17.1469 15 17.0563 14.968 16.9923 14.904C16.9283 14.8293 16.8963 14.7387 16.8963 14.632V13.944C16.7576 14.136 16.5709 14.328 16.3363 14.52C16.1016 14.7013 15.8083 14.856 15.4563 14.984C15.1043 15.1013 14.6723 15.16 14.1603 15.16ZM14.4963 13.96C14.9336 13.96 15.3336 13.8693 15.6963 13.688C16.0589 13.496 16.3416 13.2027 16.5443 12.808C16.7576 12.4133 16.8643 11.9173 16.8643 11.32V10.872L15.0083 11.144C14.2509 11.2507 13.6803 11.432 13.2963 11.688C12.9123 11.9333 12.7203 12.248 12.7203 12.632C12.7203 12.9307 12.8056 13.1813 12.9763 13.384C13.1576 13.576 13.3816 13.72 13.6483 13.816C13.9256 13.912 14.2083 13.96 14.4963 13.96ZM21.0364 15C20.9297 15 20.839 14.968 20.7644 14.904C20.7004 14.8293 20.6684 14.7387 20.6684 14.632V7.064C20.6684 6.95733 20.7004 6.86667 20.7644 6.792C20.839 6.71733 20.9297 6.68 21.0364 6.68H21.7724C21.879 6.68 21.9697 6.71733 22.0444 6.792C22.119 6.86667 22.1564 6.95733 22.1564 7.064V7.768C22.3697 7.40533 22.663 7.13333 23.0364 6.952C23.4097 6.77067 23.863 6.68 24.3964 6.68H25.0204C25.127 6.68 25.2124 6.71733 25.2764 6.792C25.351 6.856 25.3884 6.94133 25.3884 7.048V7.704C25.3884 7.81067 25.351 7.896 25.2764 7.96C25.2124 8.024 25.127 8.056 25.0204 8.056H24.0604C23.4844 8.056 23.031 8.22667 22.7004 8.568C22.3697 8.89867 22.2044 9.352 22.2044 9.928V14.632C22.2044 14.7387 22.167 14.8293 22.0924 14.904C22.0177 14.968 21.927 15 21.8204 15H21.0364ZM27.1145 15C27.0078 15 26.9172 14.968 26.8425 14.904C26.7785 14.8293 26.7465 14.7387 26.7465 14.632V7.048C26.7465 6.94133 26.7785 6.856 26.8425 6.792C26.9172 6.71733 27.0078 6.68 27.1145 6.68H27.8825C27.9892 6.68 28.0745 6.71733 28.1385 6.792C28.2132 6.856 28.2505 6.94133 28.2505 7.048V14.632C28.2505 14.7387 28.2132 14.8293 28.1385 14.904C28.0745 14.968 27.9892 15 27.8825 15H27.1145ZM26.9865 5.128C26.8798 5.128 26.7892 5.096 26.7145 5.032C26.6505 4.95733 26.6185 4.86667 26.6185 4.76V3.896C26.6185 3.78933 26.6505 3.69867 26.7145 3.624C26.7892 3.54933 26.8798 3.512 26.9865 3.512H27.9945C28.1012 3.512 28.1918 3.54933 28.2665 3.624C28.3412 3.69867 28.3785 3.78933 28.3785 3.896V4.76C28.3785 4.86667 28.3412 4.95733 28.2665 5.032C28.1918 5.096 28.1012 5.128 27.9945 5.128H26.9865ZM31.8215 15C31.7148 15 31.6242 14.968 31.5495 14.904C31.4855 14.8293 31.4535 14.7387 31.4535 14.632V7.96H30.0935C29.9868 7.96 29.8962 7.928 29.8215 7.864C29.7575 7.78933 29.7255 7.69867 29.7255 7.592V7.048C29.7255 6.94133 29.7575 6.856 29.8215 6.792C29.8962 6.71733 29.9868 6.68 30.0935 6.68H31.4535V5.88C31.4535 5.336 31.5442 4.86133 31.7255 4.456C31.9068 4.04 32.1948 3.72 32.5895 3.496C32.9948 3.272 33.5335 3.16 34.2055 3.16H35.1655C35.2722 3.16 35.3575 3.19733 35.4215 3.272C35.4962 3.336 35.5335 3.42133 35.5335 3.528V4.072C35.5335 4.17867 35.4962 4.26933 35.4215 4.344C35.3575 4.408 35.2722 4.44 35.1655 4.44H34.2375C33.7362 4.44 33.3948 4.57333 33.2135 4.84C33.0322 5.096 32.9415 5.46933 32.9415 5.96V6.68H35.0055C35.1122 6.68 35.1975 6.71733 35.2615 6.792C35.3362 6.856 35.3735 6.94133 35.3735 7.048V7.592C35.3735 7.69867 35.3362 7.78933 35.2615 7.864C35.1975 7.928 35.1122 7.96 35.0055 7.96H32.9415V14.632C32.9415 14.7387 32.9042 14.8293 32.8295 14.904C32.7655 14.968 32.6802 15 32.5735 15H31.8215ZM38.2338 18.04C38.1484 18.04 38.0738 18.008 38.0098 17.944C37.9458 17.88 37.9138 17.8053 37.9138 17.72C37.9138 17.6773 37.9191 17.6347 37.9298 17.592C37.9404 17.5493 37.9618 17.496 37.9938 17.432L39.2258 14.504L36.1698 7.288C36.1164 7.16 36.0898 7.06933 36.0898 7.016C36.0898 6.92 36.1218 6.84 36.1858 6.776C36.2498 6.712 36.3298 6.68 36.4258 6.68H37.2098C37.3271 6.68 37.4124 6.70667 37.4658 6.76C37.5298 6.81333 37.5724 6.87733 37.5938 6.952L40.0258 12.776L42.5218 6.952C42.5538 6.87733 42.5964 6.81333 42.6498 6.76C42.7138 6.70667 42.8044 6.68 42.9218 6.68H43.6737C43.7697 6.68 43.8498 6.712 43.9138 6.776C43.9778 6.84 44.0098 6.91467 44.0098 7C44.0098 7.05333 43.9831 7.14933 43.9298 7.288L39.3858 17.768C39.3538 17.8427 39.3058 17.9067 39.2418 17.96C39.1884 18.0133 39.1031 18.04 38.9858 18.04H38.2338Z"/>
</mask>
<path d="M5.424 15.16C4.44267 15.16 3.62667 14.9787 2.976 14.616C2.336 14.2533 1.85067 13.7467 1.52 13.096C1.18933 12.4453 1.008 11.688 0.976 10.824C0.965333 10.3867 0.96 9.91733 0.96 9.416C0.96 8.91467 0.965333 8.43467 0.976 7.976C1.008 7.112 1.18933 6.35467 1.52 5.704C1.85067 5.05333 2.336 4.54667 2.976 4.184C3.62667 3.82133 4.44267 3.64 5.424 3.64C6.16 3.64 6.80533 3.74133 7.36 3.944C7.91467 4.14667 8.37333 4.41867 8.736 4.76C9.10933 5.10133 9.392 5.48533 9.584 5.912C9.776 6.328 9.88267 6.76 9.904 7.208C9.91467 7.304 9.88267 7.384 9.808 7.448C9.744 7.512 9.664 7.544 9.568 7.544H8.688C8.592 7.544 8.50667 7.51733 8.432 7.464C8.368 7.41067 8.32 7.31467 8.288 7.176C8.10667 6.344 7.76533 5.77333 7.264 5.464C6.77333 5.15467 6.16 5 5.424 5C4.56 5 3.87733 5.24533 3.376 5.736C2.87467 6.216 2.608 6.98933 2.576 8.056C2.544 8.93067 2.544 9.82667 2.576 10.744C2.608 11.8107 2.87467 12.5893 3.376 13.08C3.87733 13.56 4.56 13.8 5.424 13.8C6.16 13.8 6.77333 13.6453 7.264 13.336C7.76533 13.0267 8.10667 12.456 8.288 11.624C8.32 11.4853 8.368 11.3893 8.432 11.336C8.50667 11.2827 8.592 11.256 8.688 11.256H9.568C9.664 11.256 9.744 11.288 9.808 11.352C9.88267 11.4053 9.91467 11.48 9.904 11.576C9.88267 12.024 9.776 12.4613 9.584 12.888C9.392 13.3147 9.10933 13.6987 8.736 14.04C8.37333 14.3813 7.91467 14.6533 7.36 14.856C6.80533 15.0587 6.16 15.16 5.424 15.16ZM14.1603 15.16C13.6269 15.16 13.1416 15.0533 12.7043 14.84C12.2669 14.6267 11.9149 14.3387 11.6483 13.976C11.3816 13.6133 11.2483 13.2027 11.2483 12.744C11.2483 12.008 11.5469 11.4213 12.1443 10.984C12.7416 10.5467 13.5203 10.2587 14.4803 10.12L16.8643 9.784V9.32C16.8643 8.808 16.7149 8.408 16.4163 8.12C16.1283 7.832 15.6536 7.688 14.9923 7.688C14.5229 7.688 14.1389 7.784 13.8403 7.976C13.5416 8.168 13.3336 8.41333 13.2163 8.712C13.1523 8.872 13.0403 8.952 12.8803 8.952H12.1603C12.0429 8.952 11.9523 8.92 11.8883 8.856C11.8349 8.78133 11.8083 8.696 11.8083 8.6C11.8083 8.44 11.8669 8.24267 11.9843 8.008C12.1123 7.77333 12.3043 7.544 12.5603 7.32C12.8163 7.096 13.1416 6.90933 13.5363 6.76C13.9416 6.6 14.4323 6.52 15.0083 6.52C15.6483 6.52 16.1869 6.60533 16.6243 6.776C17.0616 6.936 17.4029 7.15467 17.6483 7.432C17.9043 7.70933 18.0856 8.024 18.1923 8.376C18.3096 8.728 18.3683 9.08533 18.3683 9.448V14.632C18.3683 14.7387 18.3309 14.8293 18.2563 14.904C18.1923 14.968 18.1069 15 18.0003 15H17.2643C17.1469 15 17.0563 14.968 16.9923 14.904C16.9283 14.8293 16.8963 14.7387 16.8963 14.632V13.944C16.7576 14.136 16.5709 14.328 16.3363 14.52C16.1016 14.7013 15.8083 14.856 15.4563 14.984C15.1043 15.1013 14.6723 15.16 14.1603 15.16ZM14.4963 13.96C14.9336 13.96 15.3336 13.8693 15.6963 13.688C16.0589 13.496 16.3416 13.2027 16.5443 12.808C16.7576 12.4133 16.8643 11.9173 16.8643 11.32V10.872L15.0083 11.144C14.2509 11.2507 13.6803 11.432 13.2963 11.688C12.9123 11.9333 12.7203 12.248 12.7203 12.632C12.7203 12.9307 12.8056 13.1813 12.9763 13.384C13.1576 13.576 13.3816 13.72 13.6483 13.816C13.9256 13.912 14.2083 13.96 14.4963 13.96ZM21.0364 15C20.9297 15 20.839 14.968 20.7644 14.904C20.7004 14.8293 20.6684 14.7387 20.6684 14.632V7.064C20.6684 6.95733 20.7004 6.86667 20.7644 6.792C20.839 6.71733 20.9297 6.68 21.0364 6.68H21.7724C21.879 6.68 21.9697 6.71733 22.0444 6.792C22.119 6.86667 22.1564 6.95733 22.1564 7.064V7.768C22.3697 7.40533 22.663 7.13333 23.0364 6.952C23.4097 6.77067 23.863 6.68 24.3964 6.68H25.0204C25.127 6.68 25.2124 6.71733 25.2764 6.792C25.351 6.856 25.3884 6.94133 25.3884 7.048V7.704C25.3884 7.81067 25.351 7.896 25.2764 7.96C25.2124 8.024 25.127 8.056 25.0204 8.056H24.0604C23.4844 8.056 23.031 8.22667 22.7004 8.568C22.3697 8.89867 22.2044 9.352 22.2044 9.928V14.632C22.2044 14.7387 22.167 14.8293 22.0924 14.904C22.0177 14.968 21.927 15 21.8204 15H21.0364ZM27.1145 15C27.0078 15 26.9172 14.968 26.8425 14.904C26.7785 14.8293 26.7465 14.7387 26.7465 14.632V7.048C26.7465 6.94133 26.7785 6.856 26.8425 6.792C26.9172 6.71733 27.0078 6.68 27.1145 6.68H27.8825C27.9892 6.68 28.0745 6.71733 28.1385 6.792C28.2132 6.856 28.2505 6.94133 28.2505 7.048V14.632C28.2505 14.7387 28.2132 14.8293 28.1385 14.904C28.0745 14.968 27.9892 15 27.8825 15H27.1145ZM26.9865 5.128C26.8798 5.128 26.7892 5.096 26.7145 5.032C26.6505 4.95733 26.6185 4.86667 26.6185 4.76V3.896C26.6185 3.78933 26.6505 3.69867 26.7145 3.624C26.7892 3.54933 26.8798 3.512 26.9865 3.512H27.9945C28.1012 3.512 28.1918 3.54933 28.2665 3.624C28.3412 3.69867 28.3785 3.78933 28.3785 3.896V4.76C28.3785 4.86667 28.3412 4.95733 28.2665 5.032C28.1918 5.096 28.1012 5.128 27.9945 5.128H26.9865ZM31.8215 15C31.7148 15 31.6242 14.968 31.5495 14.904C31.4855 14.8293 31.4535 14.7387 31.4535 14.632V7.96H30.0935C29.9868 7.96 29.8962 7.928 29.8215 7.864C29.7575 7.78933 29.7255 7.69867 29.7255 7.592V7.048C29.7255 6.94133 29.7575 6.856 29.8215 6.792C29.8962 6.71733 29.9868 6.68 30.0935 6.68H31.4535V5.88C31.4535 5.336 31.5442 4.86133 31.7255 4.456C31.9068 4.04 32.1948 3.72 32.5895 3.496C32.9948 3.272 33.5335 3.16 34.2055 3.16H35.1655C35.2722 3.16 35.3575 3.19733 35.4215 3.272C35.4962 3.336 35.5335 3.42133 35.5335 3.528V4.072C35.5335 4.17867 35.4962 4.26933 35.4215 4.344C35.3575 4.408 35.2722 4.44 35.1655 4.44H34.2375C33.7362 4.44 33.3948 4.57333 33.2135 4.84C33.0322 5.096 32.9415 5.46933 32.9415 5.96V6.68H35.0055C35.1122 6.68 35.1975 6.71733 35.2615 6.792C35.3362 6.856 35.3735 6.94133 35.3735 7.048V7.592C35.3735 7.69867 35.3362 7.78933 35.2615 7.864C35.1975 7.928 35.1122 7.96 35.0055 7.96H32.9415V14.632C32.9415 14.7387 32.9042 14.8293 32.8295 14.904C32.7655 14.968 32.6802 15 32.5735 15H31.8215ZM38.2338 18.04C38.1484 18.04 38.0738 18.008 38.0098 17.944C37.9458 17.88 37.9138 17.8053 37.9138 17.72C37.9138 17.6773 37.9191 17.6347 37.9298 17.592C37.9404 17.5493 37.9618 17.496 37.9938 17.432L39.2258 14.504L36.1698 7.288C36.1164 7.16 36.0898 7.06933 36.0898 7.016C36.0898 6.92 36.1218 6.84 36.1858 6.776C36.2498 6.712 36.3298 6.68 36.4258 6.68H37.2098C37.3271 6.68 37.4124 6.70667 37.4658 6.76C37.5298 6.81333 37.5724 6.87733 37.5938 6.952L40.0258 12.776L42.5218 6.952C42.5538 6.87733 42.5964 6.81333 42.6498 6.76C42.7138 6.70667 42.8044 6.68 42.9218 6.68H43.6737C43.7697 6.68 43.8498 6.712 43.9138 6.776C43.9778 6.84 44.0098 6.91467 44.0098 7C44.0098 7.05333 43.9831 7.14933 43.9298 7.288L39.3858 17.768C39.3538 17.8427 39.3058 17.9067 39.2418 17.96C39.1884 18.0133 39.1031 18.04 38.9858 18.04H38.2338Z" fill="white"/>
<path d="M2.976 14.616L2.72949 15.051L2.73257 15.0527L2.976 14.616ZM1.52 13.096L1.96574 12.8695L1.96574 12.8695L1.52 13.096ZM0.976 10.824L0.476109 10.8362L0.476343 10.8425L0.976 10.824ZM0.976 7.976L0.476295 7.95749L0.476135 7.96438L0.976 7.976ZM1.52 5.704L1.96574 5.93052L1.96574 5.93052L1.52 5.704ZM2.976 4.184L2.73257 3.74725L2.72949 3.74899L2.976 4.184ZM7.36 3.944L7.1884 4.41363L7.1884 4.41363L7.36 3.944ZM8.736 4.76L8.39328 5.12414L8.39862 5.12901L8.736 4.76ZM9.584 5.912L9.12802 6.11719L9.13002 6.12153L9.584 5.912ZM9.904 7.208L9.40457 7.23178L9.40532 7.24754L9.40706 7.26321L9.904 7.208ZM9.808 7.448L9.4826 7.06837L9.46802 7.08087L9.45445 7.09445L9.808 7.448ZM8.432 7.464L8.11191 7.84811L8.12622 7.86004L8.14138 7.87087L8.432 7.464ZM8.288 7.176L7.79943 7.28248L7.8008 7.28843L8.288 7.176ZM7.264 5.464L6.99734 5.88698L7.00145 5.88952L7.264 5.464ZM3.376 5.736L3.72181 6.09717L3.72573 6.09333L3.376 5.736ZM2.576 8.056L3.07568 8.07428L3.07578 8.07099L2.576 8.056ZM2.576 10.744L3.07578 10.729L3.0757 10.7266L2.576 10.744ZM3.376 13.08L3.02625 13.4374L3.03021 13.4412L3.376 13.08ZM7.264 13.336L7.00143 12.9105L6.99735 12.913L7.264 13.336ZM8.288 11.624L7.80077 11.5116L7.79947 11.5175L8.288 11.624ZM8.432 11.336L8.14138 10.9291L8.12622 10.94L8.11191 10.9519L8.432 11.336ZM9.808 11.352L9.45445 11.7056L9.48371 11.7348L9.51738 11.7589L9.808 11.352ZM9.904 11.576L9.40706 11.5208L9.40532 11.5365L9.40457 11.5522L9.904 11.576ZM9.584 12.888L10.04 13.0932L10.04 13.0932L9.584 12.888ZM8.736 14.04L8.39858 13.6709L8.39332 13.6759L8.736 14.04ZM7.36 14.856L7.1884 14.3864L7.1884 14.3864L7.36 14.856ZM5.424 14.66C4.5017 14.66 3.77573 14.4893 3.21943 14.1793L2.73257 15.0527C3.4776 15.468 4.38364 15.66 5.424 15.66V14.66ZM3.22251 14.181C2.66724 13.8663 2.25154 13.4319 1.96574 12.8695L1.07426 13.3225C1.44979 14.0615 2.00476 14.6403 2.72949 15.051L3.22251 14.181ZM1.96574 12.8695C1.67342 12.2943 1.50546 11.6103 1.47566 10.8055L0.476343 10.8425C0.510536 11.7657 0.705249 12.5964 1.07426 13.3225L1.96574 12.8695ZM1.47585 10.8118C1.4653 10.3791 1.46 9.91384 1.46 9.416H0.46C0.46 9.92083 0.46537 10.3943 0.476149 10.8362L1.47585 10.8118ZM1.46 9.416C1.46 8.91819 1.4653 8.44208 1.47586 7.98762L0.476135 7.96438C0.465371 8.42725 0.46 8.91114 0.46 9.416H1.46ZM1.47566 7.99451C1.50546 7.18972 1.67342 6.50574 1.96574 5.93052L1.07426 5.47747C0.705249 6.20359 0.510536 7.03428 0.476343 7.95749L1.47566 7.99451ZM1.96574 5.93052C2.25154 5.36814 2.66724 4.93366 3.22251 4.61901L2.72949 3.74899C2.00476 4.15967 1.44979 4.73852 1.07426 5.47747L1.96574 5.93052ZM3.21943 4.62074C3.77573 4.31067 4.5017 4.14 5.424 4.14V3.14C4.38364 3.14 3.4776 3.332 2.73257 3.74726L3.21943 4.62074ZM5.424 4.14C6.11532 4.14 6.70038 4.23532 7.1884 4.41363L7.5316 3.47437C6.91029 3.24735 6.20468 3.14 5.424 3.14V4.14ZM7.1884 4.41363C7.6911 4.59731 8.08822 4.83695 8.39332 5.1241L9.07868 4.3959C8.65845 4.00038 8.13823 3.69602 7.5316 3.47437L7.1884 4.41363ZM8.39862 5.12901C8.7258 5.42816 8.9662 5.75753 9.12804 6.11718L10.04 5.70682C9.8178 5.21313 9.49287 4.77451 9.07338 4.39098L8.39862 5.12901ZM9.13002 6.12153C9.29565 6.4804 9.38636 6.84945 9.40457 7.23178L10.4034 7.18422C10.379 6.67055 10.2563 6.1756 10.038 5.70247L9.13002 6.12153ZM9.40706 7.26321C9.40442 7.23949 9.40566 7.19956 9.42376 7.1543C9.44172 7.10942 9.46742 7.08139 9.4826 7.06837L10.1334 7.82763C10.3309 7.65832 10.4303 7.41673 10.4009 7.15278L9.40706 7.26321ZM9.45445 7.09445C9.46787 7.08103 9.48828 7.06617 9.5143 7.05576C9.53974 7.04559 9.55964 7.044 9.568 7.044V8.044C9.78768 8.044 9.99766 7.96545 10.1616 7.80155L9.45445 7.09445ZM9.568 7.044H8.688V8.044H9.568V7.044ZM8.688 7.044C8.68685 7.044 8.6921 7.04393 8.70114 7.04676C8.7104 7.04965 8.71797 7.05381 8.72262 7.05713L8.14138 7.87087C8.30493 7.98768 8.49291 8.044 8.688 8.044V7.044ZM8.75209 7.07989C8.76922 7.09416 8.78046 7.10728 8.787 7.116C8.79344 7.12458 8.79575 7.12946 8.79521 7.12839C8.79469 7.12734 8.79207 7.12186 8.78826 7.11066C8.78446 7.09952 8.77993 7.08407 8.7752 7.06357L7.8008 7.28843C7.84168 7.46554 7.92285 7.69056 8.11191 7.84811L8.75209 7.07989ZM8.77653 7.06953C8.57928 6.16448 8.18663 5.44576 7.52655 5.03848L7.00145 5.88952C7.34404 6.10091 7.63406 6.52352 7.79947 7.28247L8.77653 7.06953ZM7.53065 5.04104C6.94125 4.66946 6.22922 4.5 5.424 4.5V5.5C6.09078 5.5 6.60541 5.63987 6.99735 5.88696L7.53065 5.04104ZM5.424 4.5C4.4613 4.5 3.64168 4.77634 3.02627 5.37866L3.72573 6.09333C4.11298 5.71432 4.6587 5.5 5.424 5.5V4.5ZM3.03021 5.37485C2.39393 5.98406 2.1101 6.912 2.07623 8.04101L3.07578 8.07099C3.10591 7.06666 3.35541 6.44794 3.72179 6.09715L3.03021 5.37485ZM2.07633 8.03772C2.04388 8.92485 2.04391 9.83277 2.0763 10.7614L3.0757 10.7266C3.04409 9.82056 3.04412 8.93649 3.07567 8.07428L2.07633 8.03772ZM2.07623 10.759C2.11013 11.8891 2.3943 12.8188 3.02627 13.4373L3.72573 12.7227C3.35504 12.3599 3.10587 11.7323 3.07578 10.729L2.07623 10.759ZM3.03021 13.4412C3.64608 14.0308 4.4643 14.3 5.424 14.3V13.3C4.6557 13.3 4.10859 13.0892 3.72179 12.7188L3.03021 13.4412ZM5.424 14.3C6.22922 14.3 6.94126 14.1305 7.53065 13.759L6.99735 12.913C6.60541 13.1601 6.09078 13.3 5.424 13.3V14.3ZM7.52655 13.7615C8.18663 13.3542 8.57928 12.6355 8.77653 11.7305L7.79947 11.5175C7.63406 12.2765 7.34404 12.6991 7.00145 12.9105L7.52655 13.7615ZM8.7752 11.7364C8.77993 11.7159 8.78446 11.7005 8.78826 11.6893C8.79207 11.6781 8.79469 11.6727 8.79521 11.6716C8.79575 11.6705 8.79344 11.6754 8.787 11.684C8.78046 11.6927 8.76922 11.7058 8.75209 11.7201L8.11191 10.9519C7.92285 11.1094 7.84168 11.3345 7.8008 11.5116L8.7752 11.7364ZM8.72262 11.7429C8.71797 11.7462 8.7104 11.7503 8.70114 11.7532C8.6921 11.7561 8.68685 11.756 8.688 11.756V10.756C8.49291 10.756 8.30493 10.8123 8.14138 10.9291L8.72262 11.7429ZM8.688 11.756H9.568V10.756H8.688V11.756ZM9.568 11.756C9.55964 11.756 9.53974 11.7544 9.51431 11.7442C9.48828 11.7338 9.46787 11.719 9.45445 11.7056L10.1616 10.9984C9.99766 10.8345 9.78768 10.756 9.568 10.756V11.756ZM9.51738 11.7589C9.49013 11.7394 9.45297 11.7022 9.42843 11.645C9.40448 11.5891 9.40466 11.5424 9.40706 11.5208L10.4009 11.6312C10.4303 11.3669 10.33 11.1104 10.0986 10.9451L9.51738 11.7589ZM9.40457 11.5522C9.38634 11.9349 9.29543 12.3108 9.12804 12.6828L10.04 13.0932C10.2566 12.6118 10.379 12.1131 10.4034 11.5998L9.40457 11.5522ZM9.12804 12.6828C8.9662 13.0425 8.7258 13.3718 8.39862 13.671L9.07338 14.409C9.49287 14.0255 9.8178 13.5869 10.04 13.0932L9.12804 12.6828ZM8.39332 13.6759C8.08822 13.9631 7.6911 14.2027 7.1884 14.3864L7.5316 15.3256C8.13823 15.104 8.65845 14.7996 9.07868 14.4041L8.39332 13.6759ZM7.1884 14.3864C6.70038 14.5647 6.11532 14.66 5.424 14.66V15.66C6.20468 15.66 6.91029 15.5526 7.5316 15.3256L7.1884 14.3864ZM12.7043 14.84L12.485 15.2894L12.485 15.2894L12.7043 14.84ZM12.1443 10.984L11.8489 10.5806L12.1443 10.984ZM14.4803 10.12L14.4105 9.62489L14.4088 9.62514L14.4803 10.12ZM16.8643 9.784L16.934 10.2791L17.3643 10.2185V9.784H16.8643ZM16.4163 8.12L16.0626 8.47361L16.0692 8.47992L16.4163 8.12ZM13.8403 7.976L14.1106 8.39659L14.1106 8.39659L13.8403 7.976ZM13.2163 8.712L13.6805 8.8977L13.6816 8.89483L13.2163 8.712ZM11.8883 8.856L11.4814 9.14662L11.5054 9.18029L11.5347 9.20955L11.8883 8.856ZM11.9843 8.008L11.5453 7.76857L11.541 7.77641L11.537 7.78439L11.9843 8.008ZM12.5603 7.32L12.8895 7.69629L12.8895 7.69629L12.5603 7.32ZM13.5363 6.76L13.7132 7.22769L13.7198 7.22508L13.5363 6.76ZM16.6243 6.776L16.4424 7.24189L16.4525 7.24556L16.6243 6.776ZM17.6483 7.432L17.2737 7.76336L17.2808 7.77114L17.6483 7.432ZM18.1923 8.376L17.7136 8.52106L17.7179 8.53411L18.1923 8.376ZM18.2563 14.904L18.6098 15.2576L18.6098 15.2576L18.2563 14.904ZM16.9923 14.904L16.6126 15.2294L16.6251 15.244L16.6387 15.2576L16.9923 14.904ZM16.8963 13.944H17.3963V12.3977L16.4909 13.6513L16.8963 13.944ZM16.3363 14.52L16.6421 14.9158L16.6529 14.907L16.3363 14.52ZM15.4563 14.984L15.6144 15.4585L15.6271 15.4539L15.4563 14.984ZM15.6963 13.688L15.9199 14.1353L15.9302 14.1299L15.6963 13.688ZM16.5443 12.808L16.1043 12.5702L16.0995 12.5796L16.5443 12.808ZM16.8643 10.872H17.3643V10.2934L16.7917 10.3773L16.8643 10.872ZM15.0083 11.144L15.078 11.6391L15.0808 11.6387L15.0083 11.144ZM13.2963 11.688L13.5655 12.1094L13.5736 12.104L13.2963 11.688ZM12.9763 13.384L12.5938 13.7061L12.603 13.717L12.6127 13.7273L12.9763 13.384ZM13.6483 13.816L13.4789 14.2865L13.4847 14.2885L13.6483 13.816ZM14.1603 14.66C13.6955 14.66 13.2862 14.5675 12.9235 14.3906L12.485 15.2894C12.997 15.5391 13.5584 15.66 14.1603 15.66V14.66ZM12.9235 14.3906C12.5528 14.2098 12.266 13.9721 12.0511 13.6798L11.2454 14.2722C11.5638 14.7052 11.981 15.0435 12.485 15.2894L12.9235 14.3906ZM12.0511 13.6798C11.8488 13.4047 11.7483 13.0983 11.7483 12.744H10.7483C10.7483 13.3071 10.9144 13.8219 11.2454 14.2722L12.0511 13.6798ZM11.7483 12.744C11.7483 12.1685 11.97 11.7313 12.4396 11.3874L11.8489 10.5806C11.1238 11.1114 10.7483 11.8475 10.7483 12.744H11.7483ZM12.4396 11.3874C12.9536 11.0111 13.6484 10.7453 14.5517 10.6149L14.4088 9.62514C13.3921 9.77199 12.5295 10.0822 11.8489 10.5806L12.4396 11.3874ZM14.55 10.6151L16.934 10.2791L16.7945 9.28889L14.4105 9.62489L14.55 10.6151ZM17.3643 9.784V9.32H16.3643V9.784H17.3643ZM17.3643 9.32C17.3643 8.70613 17.1817 8.1635 16.7633 7.76008L16.0692 8.47992C16.2482 8.6525 16.3643 8.90987 16.3643 9.32H17.3643ZM16.7698 7.76645C16.344 7.34061 15.7071 7.188 14.9923 7.188V8.188C15.6001 8.188 15.9125 8.32339 16.0627 8.47355L16.7698 7.76645ZM14.9923 7.188C14.4573 7.188 13.9713 7.29734 13.5699 7.55541L14.1106 8.39659C14.3065 8.27066 14.5886 8.188 14.9923 8.188V7.188ZM13.5699 7.55541C13.1927 7.79787 12.9107 8.12235 12.7509 8.52917L13.6816 8.89483C13.7565 8.70431 13.8905 8.53813 14.1106 8.39659L13.5699 7.55541ZM12.752 8.5263C12.7466 8.53981 12.7543 8.51322 12.7936 8.48513C12.8356 8.45513 12.8735 8.452 12.8803 8.452V9.452C13.047 9.452 13.2209 9.40886 13.3749 9.29887C13.5262 9.19078 13.6219 9.04419 13.6805 8.8977L12.752 8.5263ZM12.8803 8.452H12.1603V9.452H12.8803V8.452ZM12.1603 8.452C12.1462 8.452 12.1522 8.45 12.1707 8.4565C12.1912 8.46377 12.2177 8.47839 12.2418 8.50245L11.5347 9.20955C11.7179 9.3928 11.9513 9.452 12.1603 9.452V8.452ZM12.2951 8.56538C12.2984 8.57003 12.3026 8.5776 12.3055 8.58686C12.3083 8.5959 12.3083 8.60115 12.3083 8.6H11.3083C11.3083 8.79509 11.3646 8.98307 11.4814 9.14662L12.2951 8.56538ZM12.3083 8.6C12.3083 8.55201 12.3292 8.43608 12.4315 8.23161L11.537 7.78439C11.4046 8.04925 11.3083 8.32799 11.3083 8.6H12.3083ZM12.4232 8.24743C12.5165 8.07643 12.6663 7.89158 12.8895 7.69629L12.231 6.94371C11.9422 7.19641 11.708 7.47024 11.5453 7.76857L12.4232 8.24743ZM12.8895 7.69629C13.0912 7.51976 13.3614 7.36075 13.7132 7.22764L13.3593 6.29236C12.9218 6.45792 12.5413 6.67224 12.231 6.94371L12.8895 7.69629ZM13.7198 7.22508C14.0512 7.09426 14.476 7.02 15.0083 7.02V6.02C14.3885 6.02 13.8319 6.10574 13.3527 6.29492L13.7198 7.22508ZM15.0083 7.02C15.6072 7.02 16.08 7.10031 16.4425 7.24179L16.806 6.31021C16.2939 6.11035 15.6893 6.02 15.0083 6.02V7.02ZM16.4525 7.24556C16.8315 7.38423 17.0959 7.56219 17.2738 7.76329L18.0227 7.10071C17.71 6.74714 17.2917 6.48776 16.796 6.30644L16.4525 7.24556ZM17.2808 7.77114C17.487 7.99448 17.6296 8.2432 17.7137 8.521L18.6708 8.231C18.5416 7.8048 18.3215 7.42419 18.0157 7.09286L17.2808 7.77114ZM17.7179 8.53411C17.8186 8.83632 17.8683 9.14032 17.8683 9.448H18.8683C18.8683 9.03035 18.8005 8.61968 18.6666 8.21789L17.7179 8.53411ZM17.8683 9.448V14.632H18.8683V9.448H17.8683ZM17.8683 14.632C17.8683 14.6258 17.8696 14.6098 17.8779 14.5896C17.8863 14.5693 17.897 14.5562 17.9027 14.5504L18.6098 15.2576C18.7793 15.0881 18.8683 14.8698 18.8683 14.632H17.8683ZM17.9027 14.5504C17.9215 14.5316 17.945 14.5167 17.9687 14.5078C17.9908 14.4995 18.0037 14.5 18.0003 14.5V15.5C18.214 15.5 18.4354 15.4319 18.6098 15.2576L17.9027 14.5504ZM18.0003 14.5H17.2643V15.5H18.0003V14.5ZM17.2643 14.5C17.2502 14.5 17.2562 14.498 17.2747 14.5045C17.2952 14.5118 17.3217 14.5264 17.3458 14.5504L16.6387 15.2576C16.8219 15.4408 17.0553 15.5 17.2643 15.5V14.5ZM17.3719 14.5786C17.3791 14.587 17.3867 14.5994 17.3917 14.6136C17.3966 14.6272 17.3963 14.6348 17.3963 14.632H16.3963C16.3963 14.8471 16.4641 15.0562 16.6126 15.2294L17.3719 14.5786ZM17.3963 14.632V13.944H16.3963V14.632H17.3963ZM16.4909 13.6513C16.3835 13.7999 16.2296 13.9612 16.0196 14.133L16.6529 14.907C16.9122 14.6948 17.1316 14.4721 17.3016 14.2367L16.4909 13.6513ZM16.0305 14.1244C15.8458 14.2671 15.601 14.3993 15.2854 14.5141L15.6271 15.4539C16.0155 15.3127 16.3574 15.1356 16.642 14.9156L16.0305 14.1244ZM15.2981 14.5097C15.0124 14.6049 14.6374 14.66 14.1603 14.66V15.66C14.7071 15.66 15.1961 15.5978 15.6144 15.4583L15.2981 14.5097ZM14.4963 14.46C15.005 14.46 15.4824 14.3539 15.9199 14.1352L15.4726 13.2408C15.1848 13.3847 14.8622 13.46 14.4963 13.46V14.46ZM15.9302 14.1299C16.3908 13.8861 16.7436 13.5144 16.989 13.0364L16.0995 12.5796C15.9396 12.891 15.7271 13.1059 15.4623 13.2461L15.9302 14.1299ZM16.9841 13.0458C17.2478 12.5579 17.3643 11.9739 17.3643 11.32H16.3643C16.3643 11.8608 16.2673 12.2688 16.1044 12.5702L16.9841 13.0458ZM17.3643 11.32V10.872H16.3643V11.32H17.3643ZM16.7917 10.3773L14.9357 10.6493L15.0808 11.6387L16.9368 11.3667L16.7917 10.3773ZM14.9385 10.6489C14.1497 10.76 13.4934 10.9557 13.0189 11.272L13.5736 12.104C13.8671 11.9083 14.3521 11.7413 15.078 11.6391L14.9385 10.6489ZM13.0271 11.2667C12.5305 11.5839 12.2203 12.0434 12.2203 12.632H13.2203C13.2203 12.4526 13.294 12.2827 13.5654 12.1093L13.0271 11.2667ZM12.2203 12.632C12.2203 13.0326 12.3375 13.4018 12.5938 13.7061L13.3587 13.0619C13.2736 12.9609 13.2203 12.8288 13.2203 12.632H12.2203ZM12.6127 13.7273C12.8518 13.9805 13.144 14.1659 13.4789 14.2864L13.8176 13.3456C13.6192 13.2741 13.4633 13.1715 13.3398 13.0407L12.6127 13.7273ZM13.4847 14.2885C13.8136 14.4024 14.1515 14.46 14.4963 14.46V13.46C14.265 13.46 14.0375 13.4216 13.8118 13.3435L13.4847 14.2885ZM20.7644 14.904L20.3847 15.2294L20.4098 15.2586L20.439 15.2836L20.7644 14.904ZM20.7644 6.792L20.4108 6.43845L20.3972 6.45202L20.3847 6.4666L20.7644 6.792ZM22.0444 6.792L21.6908 7.14555L21.6908 7.14555L22.0444 6.792ZM22.1564 7.768H21.6564V9.60415L22.5873 8.02151L22.1564 7.768ZM23.0364 6.952L23.2548 7.40175L23.2548 7.40175L23.0364 6.952ZM25.2764 6.792L24.8967 7.1174L24.9218 7.1466L24.951 7.17163L25.2764 6.792ZM25.2764 7.96L24.951 7.58037L24.9364 7.59287L24.9228 7.60645L25.2764 7.96ZM22.7004 8.568L23.054 8.9216L23.0595 8.9159L22.7004 8.568ZM22.0924 14.904L22.4178 15.2836L22.4324 15.2711L22.4459 15.2576L22.0924 14.904ZM21.0364 14.5C21.0336 14.5 21.0411 14.4997 21.0548 14.5045C21.069 14.5095 21.0813 14.5171 21.0898 14.5244L20.439 15.2836C20.6122 15.4321 20.8212 15.5 21.0364 15.5V14.5ZM21.144 14.5786C21.1512 14.587 21.1589 14.5994 21.1639 14.6136C21.1687 14.6272 21.1684 14.6348 21.1684 14.632H20.1684C20.1684 14.8471 20.2363 15.0562 20.3847 15.2294L21.144 14.5786ZM21.1684 14.632V7.064H20.1684V14.632H21.1684ZM21.1684 7.064C21.1684 7.06119 21.1687 7.06877 21.1639 7.08241C21.1589 7.09663 21.1512 7.10895 21.144 7.1174L20.3847 6.4666C20.2363 6.63983 20.1684 6.84887 20.1684 7.064H21.1684ZM21.1179 7.14555C21.1122 7.15127 21.099 7.16199 21.0788 7.17034C21.0586 7.17865 21.0426 7.18 21.0364 7.18V6.18C20.7986 6.18 20.5803 6.26895 20.4108 6.43845L21.1179 7.14555ZM21.0364 7.18H21.7724V6.18H21.0364V7.18ZM21.7724 7.18C21.7662 7.18 21.7502 7.17865 21.73 7.17034C21.7097 7.16199 21.6965 7.15127 21.6908 7.14555L22.3979 6.43845C22.2284 6.26895 22.0101 6.18 21.7724 6.18V7.18ZM21.6908 7.14555C21.6851 7.13984 21.6744 7.12665 21.666 7.10637C21.6577 7.0862 21.6564 7.0702 21.6564 7.064H22.6564C22.6564 6.82624 22.5674 6.60795 22.3979 6.43845L21.6908 7.14555ZM21.6564 7.064V7.768H22.6564V7.064H21.6564ZM22.5873 8.02151C22.7515 7.74252 22.9714 7.53941 23.2548 7.40175L22.8179 6.50225C22.3547 6.72725 21.988 7.06814 21.7254 7.51449L22.5873 8.02151ZM23.2548 7.40175C23.5435 7.26152 23.9179 7.18 24.3964 7.18V6.18C23.8082 6.18 23.2759 6.27981 22.8179 6.50225L23.2548 7.40175ZM24.3964 7.18H25.0204V6.18H24.3964V7.18ZM25.0204 7.18C25.0147 7.18 24.993 7.17879 24.964 7.16608C24.9338 7.15289 24.9109 7.13395 24.8967 7.1174L25.656 6.4666C25.4883 6.27092 25.259 6.18 25.0204 6.18V7.18ZM24.951 7.17163C24.9344 7.15744 24.9155 7.13455 24.9023 7.10441C24.8896 7.07534 24.8884 7.05368 24.8884 7.048H25.8884C25.8884 6.80935 25.7975 6.5801 25.6018 6.41237L24.951 7.17163ZM24.8884 7.048V7.704H25.8884V7.048H24.8884ZM24.8884 7.704C24.8884 7.69832 24.8896 7.67665 24.9023 7.64759C24.9155 7.61745 24.9344 7.59456 24.951 7.58037L25.6018 8.33963C25.7975 8.1719 25.8884 7.94265 25.8884 7.704H24.8884ZM24.9228 7.60645C24.9417 7.58762 24.9651 7.57272 24.9888 7.56384C25.011 7.55553 25.0238 7.556 25.0204 7.556V8.556C25.2342 8.556 25.4556 8.48792 25.6299 8.31355L24.9228 7.60645ZM25.0204 7.556H24.0604V8.556H25.0204V7.556ZM24.0604 7.556C23.3798 7.556 22.7856 7.76146 22.3413 8.2201L23.0595 8.9159C23.2765 8.69187 23.589 8.556 24.0604 8.556V7.556ZM22.3468 8.21445C21.9016 8.65967 21.7044 9.25201 21.7044 9.928H22.7044C22.7044 9.45199 22.8378 9.13766 23.0539 8.92155L22.3468 8.21445ZM21.7044 9.928V14.632H22.7044V9.928H21.7044ZM21.7044 14.632C21.7044 14.6258 21.7057 14.6098 21.714 14.5896C21.7224 14.5693 21.7331 14.5562 21.7388 14.5504L22.4459 15.2576C22.6154 15.0881 22.7044 14.8698 22.7044 14.632H21.7044ZM21.767 14.5244C21.7754 14.5171 21.7877 14.5095 21.802 14.5045C21.8156 14.4997 21.8232 14.5 21.8204 14.5V15.5C22.0355 15.5 22.2445 15.4321 22.4178 15.2836L21.767 14.5244ZM21.8204 14.5H21.0364V15.5H21.8204V14.5ZM26.8425 14.904L26.4629 15.2294L26.4879 15.2586L26.5171 15.2836L26.8425 14.904ZM26.8425 6.792L27.1961 7.14555L27.1961 7.14555L26.8425 6.792ZM28.1385 6.792L27.7589 7.1174L27.7839 7.1466L27.8131 7.17163L28.1385 6.792ZM28.1385 14.904L28.4921 15.2576L28.4921 15.2576L28.1385 14.904ZM26.7145 5.032L26.3349 5.35739L26.3599 5.3866L26.3891 5.41163L26.7145 5.032ZM26.7145 3.624L26.3609 3.27045L26.3474 3.28402L26.3349 3.2986L26.7145 3.624ZM28.2665 3.624L27.9129 3.97755L27.9129 3.97755L28.2665 3.624ZM28.2665 5.032L28.5919 5.41163L28.6065 5.39913L28.6201 5.38555L28.2665 5.032ZM27.1145 14.5C27.1117 14.5 27.1193 14.4997 27.1329 14.5045C27.1471 14.5095 27.1595 14.5171 27.1679 14.5244L26.5171 15.2836C26.6903 15.4321 26.8994 15.5 27.1145 15.5V14.5ZM27.2221 14.5786C27.2294 14.587 27.237 14.5994 27.242 14.6136C27.2468 14.6272 27.2465 14.6348 27.2465 14.632H26.2465C26.2465 14.8471 26.3144 15.0562 26.4629 15.2294L27.2221 14.5786ZM27.2465 14.632V7.048H26.2465V14.632H27.2465ZM27.2465 7.048C27.2465 7.0446 27.247 7.05741 27.2387 7.07956C27.2298 7.10325 27.2149 7.12672 27.1961 7.14555L26.4889 6.43845C26.3146 6.61281 26.2465 6.83421 26.2465 7.048H27.2465ZM27.1961 7.14555C27.1903 7.15127 27.1772 7.16199 27.1569 7.17034C27.1367 7.17865 27.1207 7.18 27.1145 7.18V6.18C26.8767 6.18 26.6584 6.26895 26.4889 6.43845L27.1961 7.14555ZM27.1145 7.18H27.8825V6.18H27.1145V7.18ZM27.8825 7.18C27.8768 7.18 27.8552 7.17879 27.8261 7.16608C27.796 7.15289 27.7731 7.13395 27.7589 7.1174L28.5181 6.4666C28.3504 6.27092 28.1211 6.18 27.8825 6.18V7.18ZM27.8131 7.17163C27.7966 7.15744 27.7776 7.13455 27.7644 7.10441C27.7517 7.07534 27.7505 7.05368 27.7505 7.048H28.7505C28.7505 6.80935 28.6596 6.5801 28.4639 6.41237L27.8131 7.17163ZM27.7505 7.048V14.632H28.7505V7.048H27.7505ZM27.7505 14.632C27.7505 14.6258 27.7519 14.6098 27.7602 14.5896C27.7685 14.5693 27.7792 14.5562 27.7849 14.5504L28.4921 15.2576C28.6616 15.0881 28.7505 14.8698 28.7505 14.632H27.7505ZM27.7849 14.5504C27.8038 14.5316 27.8273 14.5167 27.8509 14.5078C27.8731 14.4995 27.8859 14.5 27.8825 14.5V15.5C28.0963 15.5 28.3177 15.4319 28.4921 15.2576L27.7849 14.5504ZM27.8825 14.5H27.1145V15.5H27.8825V14.5ZM26.9865 4.628C26.9837 4.628 26.9913 4.62769 27.0049 4.6325C27.0191 4.63752 27.0314 4.64513 27.0399 4.65237L26.3891 5.41163C26.5623 5.56011 26.7714 5.628 26.9865 5.628V4.628ZM27.0941 4.7066C27.1014 4.71505 27.109 4.72737 27.114 4.74159C27.1188 4.75523 27.1185 4.76281 27.1185 4.76H26.1185C26.1185 4.97513 26.1864 5.18416 26.3349 5.35739L27.0941 4.7066ZM27.1185 4.76V3.896H26.1185V4.76H27.1185ZM27.1185 3.896C27.1185 3.89319 27.1188 3.90077 27.114 3.91441C27.109 3.92863 27.1014 3.94095 27.0941 3.9494L26.3349 3.2986C26.1864 3.47183 26.1185 3.68087 26.1185 3.896H27.1185ZM27.0681 3.97755C27.0623 3.98327 27.0492 3.99399 27.0289 4.00234C27.0087 4.01065 26.9927 4.012 26.9865 4.012V3.012C26.7487 3.012 26.5304 3.10095 26.3609 3.27045L27.0681 3.97755ZM26.9865 4.012H27.9945V3.012H26.9865V4.012ZM27.9945 4.012C27.9883 4.012 27.9723 4.01065 27.9521 4.00234C27.9318 3.99399 27.9187 3.98327 27.9129 3.97755L28.6201 3.27045C28.4506 3.10095 28.2323 3.012 27.9945 3.012V4.012ZM27.9129 3.97755C27.9072 3.97184 27.8965 3.95865 27.8882 3.93837C27.8799 3.9182 27.8785 3.9022 27.8785 3.896H28.8785C28.8785 3.65824 28.7896 3.43995 28.6201 3.27045L27.9129 3.97755ZM27.8785 3.896V4.76H28.8785V3.896H27.8785ZM27.8785 4.76C27.8785 4.7538 27.8799 4.7378 27.8882 4.71762C27.8965 4.69735 27.9072 4.68416 27.9129 4.67845L28.6201 5.38555C28.7896 5.21605 28.8785 4.99776 28.8785 4.76H27.8785ZM27.9411 4.65237C27.9496 4.64513 27.9619 4.63752 27.9761 4.6325C27.9897 4.62769 27.9973 4.628 27.9945 4.628V5.628C28.2096 5.628 28.4187 5.56011 28.5919 5.41163L27.9411 4.65237ZM27.9945 4.628H26.9865V5.628H27.9945V4.628ZM31.5495 14.904L31.1699 15.2294L31.1949 15.2586L31.2241 15.2836L31.5495 14.904ZM31.4535 7.96H31.9535V7.46H31.4535V7.96ZM29.8215 7.864L29.4419 8.1894L29.4669 8.2186L29.4961 8.24363L29.8215 7.864ZM29.8215 6.792L30.1751 7.14555L30.1751 7.14555L29.8215 6.792ZM31.4535 6.68V7.18H31.9535V6.68H31.4535ZM31.7255 4.456L32.1819 4.66019L32.1838 4.65579L31.7255 4.456ZM32.5895 3.496L32.3476 3.05835L32.3427 3.06116L32.5895 3.496ZM35.4215 3.272L35.0419 3.5974L35.0669 3.6266L35.0961 3.65163L35.4215 3.272ZM35.4215 4.344L35.7751 4.69755L35.7751 4.69755L35.4215 4.344ZM33.2135 4.84L33.6216 5.12906L33.627 5.12115L33.2135 4.84ZM32.9415 6.68H32.4415V7.18H32.9415V6.68ZM35.2615 6.792L34.8819 7.1174L34.9069 7.1466L34.9361 7.17163L35.2615 6.792ZM35.2615 7.864L35.6151 8.21755L35.6151 8.21755L35.2615 7.864ZM32.9415 7.96V7.46H32.4415V7.96H32.9415ZM32.8295 14.904L32.4759 14.5504L32.4759 14.5504L32.8295 14.904ZM31.8215 14.5C31.8187 14.5 31.8263 14.4997 31.8399 14.5045C31.8541 14.5095 31.8665 14.5171 31.8749 14.5244L31.2241 15.2836C31.3973 15.4321 31.6064 15.5 31.8215 15.5V14.5ZM31.9291 14.5786C31.9364 14.587 31.944 14.5994 31.949 14.6136C31.9538 14.6272 31.9535 14.6348 31.9535 14.632H30.9535C30.9535 14.8471 31.0214 15.0562 31.1699 15.2294L31.9291 14.5786ZM31.9535 14.632V7.96H30.9535V14.632H31.9535ZM31.4535 7.46H30.0935V8.46H31.4535V7.46ZM30.0935 7.46C30.0907 7.46 30.0983 7.45969 30.1119 7.4645C30.1261 7.46952 30.1384 7.47713 30.1469 7.48437L29.4961 8.24363C29.6693 8.39211 29.8784 8.46 30.0935 8.46V7.46ZM30.2011 7.5386C30.2084 7.54705 30.216 7.55937 30.221 7.57359C30.2258 7.58723 30.2255 7.59481 30.2255 7.592H29.2255C29.2255 7.80713 29.2934 8.01617 29.4419 8.1894L30.2011 7.5386ZM30.2255 7.592V7.048H29.2255V7.592H30.2255ZM30.2255 7.048C30.2255 7.0446 30.226 7.05741 30.2177 7.07956C30.2088 7.10325 30.1939 7.12672 30.1751 7.14555L29.4679 6.43845C29.2936 6.61281 29.2255 6.83421 29.2255 7.048H30.2255ZM30.1751 7.14555C30.1693 7.15127 30.1562 7.16199 30.1359 7.17034C30.1157 7.17865 30.0997 7.18 30.0935 7.18V6.18C29.8557 6.18 29.6374 6.26895 29.4679 6.43845L30.1751 7.14555ZM30.0935 7.18H31.4535V6.18H30.0935V7.18ZM31.9535 6.68V5.88H30.9535V6.68H31.9535ZM31.9535 5.88C31.9535 5.39091 32.035 4.98852 32.1819 4.66018L31.2691 4.25182C31.0533 4.73414 30.9535 5.28109 30.9535 5.88H31.9535ZM32.1838 4.65579C32.322 4.33897 32.5357 4.10144 32.8363 3.93084L32.3427 3.06116C31.8539 3.33856 31.4917 3.74103 31.2672 4.25621L32.1838 4.65579ZM32.8313 3.93362C33.1367 3.76487 33.5824 3.66 34.2055 3.66V2.66C33.4846 2.66 32.853 2.77913 32.3477 3.05838L32.8313 3.93362ZM34.2055 3.66H35.1655V2.66H34.2055V3.66ZM35.1655 3.66C35.1598 3.66 35.1382 3.65879 35.1091 3.64608C35.079 3.63289 35.0561 3.61395 35.0419 3.5974L35.8011 2.9466C35.6334 2.75092 35.4041 2.66 35.1655 2.66V3.66ZM35.0961 3.65163C35.0796 3.63744 35.0606 3.61455 35.0474 3.58441C35.0347 3.55534 35.0335 3.53368 35.0335 3.528H36.0335C36.0335 3.28935 35.9426 3.0601 35.7469 2.89237L35.0961 3.65163ZM35.0335 3.528V4.072H36.0335V3.528H35.0335ZM35.0335 4.072C35.0335 4.0658 35.0349 4.0498 35.0432 4.02962C35.0515 4.00935 35.0622 3.99616 35.0679 3.99045L35.7751 4.69755C35.9446 4.52805 36.0335 4.30976 36.0335 4.072H35.0335ZM35.0679 3.99045C35.0868 3.97162 35.1103 3.95672 35.1339 3.94783C35.1561 3.93953 35.1689 3.94 35.1655 3.94V4.94C35.3793 4.94 35.6007 4.87192 35.7751 4.69755L35.0679 3.99045ZM35.1655 3.94H34.2375V4.94H35.1655V3.94ZM34.2375 3.94C33.666 3.94 33.1176 4.09177 32.8 4.55884L33.627 5.12115C33.672 5.05489 33.8063 4.94 34.2375 4.94V3.94ZM32.8055 4.55099C32.5392 4.92698 32.4415 5.42003 32.4415 5.96H33.4415C33.4415 5.51864 33.5252 5.26502 33.6215 5.12901L32.8055 4.55099ZM32.4415 5.96V6.68H33.4415V5.96H32.4415ZM32.9415 7.18H35.0055V6.18H32.9415V7.18ZM35.0055 7.18C34.9998 7.18 34.9782 7.17879 34.9491 7.16608C34.919 7.15289 34.8961 7.13395 34.8819 7.1174L35.6411 6.4666C35.4734 6.27092 35.2441 6.18 35.0055 6.18V7.18ZM34.9361 7.17163C34.9196 7.15744 34.9006 7.13455 34.8874 7.10441C34.8747 7.07534 34.8735 7.05368 34.8735 7.048H35.8735C35.8735 6.80935 35.7826 6.5801 35.5869 6.41237L34.9361 7.17163ZM34.8735 7.048V7.592H35.8735V7.048H34.8735ZM34.8735 7.592C34.8735 7.5858 34.8749 7.5698 34.8832 7.54963C34.8915 7.52935 34.9022 7.51616 34.9079 7.51045L35.6151 8.21755C35.7846 8.04805 35.8735 7.82976 35.8735 7.592H34.8735ZM34.9079 7.51045C34.9268 7.49162 34.9503 7.47672 34.9739 7.46783C34.9961 7.45953 35.0089 7.46 35.0055 7.46V8.46C35.2193 8.46 35.4407 8.39192 35.6151 8.21755L34.9079 7.51045ZM35.0055 7.46H32.9415V8.46H35.0055V7.46ZM32.4415 7.96V14.632H33.4415V7.96H32.4415ZM32.4415 14.632C32.4415 14.6258 32.4429 14.6098 32.4512 14.5896C32.4595 14.5693 32.4702 14.5562 32.4759 14.5504L33.1831 15.2576C33.3526 15.0881 33.4415 14.8698 33.4415 14.632H32.4415ZM32.4759 14.5504C32.4948 14.5316 32.5183 14.5167 32.5419 14.5078C32.5641 14.4995 32.5769 14.5 32.5735 14.5V15.5C32.7873 15.5 33.0087 15.4319 33.1831 15.2576L32.4759 14.5504ZM32.5735 14.5H31.8215V15.5H32.5735V14.5ZM38.0098 17.944L37.6562 18.2976L37.6562 18.2976L38.0098 17.944ZM37.9298 17.592L38.4148 17.7133L38.4148 17.7133L37.9298 17.592ZM37.9938 17.432L38.441 17.6556L38.4483 17.641L38.4546 17.6259L37.9938 17.432ZM39.2258 14.504L39.6866 14.6979L39.7685 14.5034L39.6862 14.309L39.2258 14.504ZM36.1698 7.288L35.7082 7.48031L35.7093 7.48299L36.1698 7.288ZM36.1858 6.776L36.5393 7.12955L36.5393 7.12955L36.1858 6.776ZM37.4658 6.76L37.1122 7.11355L37.1282 7.12959L37.1457 7.14411L37.4658 6.76ZM37.5938 6.952L37.113 7.08936L37.1211 7.11758L37.1324 7.14467L37.5938 6.952ZM40.0258 12.776L39.5644 12.9687L40.0198 14.0592L40.4853 12.973L40.0258 12.776ZM42.5218 6.952L42.9813 7.14896L42.9813 7.14896L42.5218 6.952ZM42.6498 6.76L42.3297 6.37589L42.3122 6.39041L42.2962 6.40645L42.6498 6.76ZM43.9298 7.288L44.3885 7.4869L44.3927 7.47728L44.3964 7.46749L43.9298 7.288ZM39.3858 17.768L38.927 17.5691L38.9262 17.571L39.3858 17.768ZM39.2418 17.96L38.9217 17.5759L38.9042 17.5904L38.8882 17.6064L39.2418 17.96ZM38.2338 17.54C38.2553 17.54 38.2827 17.5444 38.3107 17.5564C38.3382 17.5682 38.3555 17.5826 38.3633 17.5904L37.6562 18.2976C37.8077 18.449 38.0071 18.54 38.2338 18.54V17.54ZM38.3633 17.5904C38.3712 17.5983 38.3856 17.6156 38.3973 17.643C38.4093 17.6711 38.4138 17.6984 38.4138 17.72H37.4138C37.4138 17.9466 37.5047 18.1461 37.6562 18.2976L38.3633 17.5904ZM38.4138 17.72C38.4138 17.7195 38.4138 17.7175 38.4148 17.7133L37.4447 17.4707C37.4244 17.5518 37.4138 17.6352 37.4138 17.72H38.4138ZM38.4148 17.7133C38.4133 17.7193 38.4133 17.7173 38.418 17.7057C38.4224 17.6946 38.4297 17.6781 38.441 17.6556L37.5465 17.2084C37.507 17.2874 37.4679 17.3777 37.4447 17.4707L38.4148 17.7133ZM38.4546 17.6259L39.6866 14.6979L38.7649 14.3101L37.5329 17.2381L38.4546 17.6259ZM39.6862 14.309L36.6302 7.09301L35.7093 7.48299L38.7653 14.699L39.6862 14.309ZM36.6313 7.09569C36.6087 7.04147 36.5959 7.00488 36.5894 6.98292C36.5863 6.97226 36.5859 6.96906 36.5864 6.97196C36.5867 6.97374 36.5898 6.98989 36.5898 7.016H35.5898C35.5898 7.11366 35.6119 7.20343 35.6301 7.26508C35.6503 7.33378 35.6775 7.40653 35.7082 7.48031L36.6313 7.09569ZM36.5898 7.016C36.5898 7.02436 36.5882 7.04426 36.578 7.0697C36.5676 7.09572 36.5527 7.11613 36.5393 7.12955L35.8322 6.42245C35.6683 6.58634 35.5898 6.79632 35.5898 7.016H36.5898ZM36.5393 7.12955C36.5259 7.14297 36.5055 7.15783 36.4794 7.16824C36.454 7.17841 36.4341 7.18 36.4258 7.18V6.18C36.2061 6.18 35.9961 6.25855 35.8322 6.42245L36.5393 7.12955ZM36.4258 7.18H37.2098V6.18H36.4258V7.18ZM37.2098 7.18C37.2327 7.18 37.2306 7.18286 37.2126 7.17724C37.1924 7.17092 37.1524 7.15373 37.1122 7.11355L37.8193 6.40645C37.6314 6.21854 37.3879 6.18 37.2098 6.18V7.18ZM37.1457 7.14411C37.1438 7.14253 37.1372 7.13654 37.1297 7.12535C37.1221 7.1139 37.1164 7.10127 37.113 7.08936L38.0745 6.81464C38.0236 6.63633 37.9211 6.48856 37.7858 6.37589L37.1457 7.14411ZM37.1324 7.14467L39.5644 12.9687L40.4871 12.5833L38.0551 6.75933L37.1324 7.14467ZM40.4853 12.973L42.9813 7.14896L42.0622 6.75504L39.5662 12.579L40.4853 12.973ZM42.9813 7.14896C42.9902 7.12822 42.9983 7.11854 43.0033 7.11355L42.2962 6.40645C42.1945 6.50812 42.1173 6.62645 42.0622 6.75504L42.9813 7.14896ZM42.9698 7.14411C42.9427 7.16671 42.9183 7.17631 42.9068 7.17968C42.8969 7.18261 42.8998 7.18 42.9218 7.18V6.18C42.7346 6.18 42.5141 6.22222 42.3297 6.37589L42.9698 7.14411ZM42.9218 7.18H43.6737V6.18H42.9218V7.18ZM43.6737 7.18C43.6654 7.18 43.6455 7.17841 43.6201 7.16824C43.594 7.15783 43.5736 7.14297 43.5602 7.12955L44.2673 6.42245C44.1034 6.25855 43.8934 6.18 43.6737 6.18V7.18ZM43.5602 7.12955C43.5523 7.1217 43.5379 7.10441 43.5262 7.07696C43.5142 7.04893 43.5098 7.02157 43.5098 7H44.5098C44.5098 6.77339 44.4188 6.5739 44.2673 6.42245L43.5602 7.12955ZM43.5098 7C43.5098 6.98627 43.5106 6.97603 43.5112 6.9702C43.5118 6.9642 43.5124 6.96069 43.5125 6.9601C43.5127 6.95939 43.5117 6.96492 43.508 6.97818C43.5005 7.00522 43.4865 7.04765 43.4631 7.10851L44.3964 7.46749C44.4263 7.38968 44.4524 7.31478 44.4715 7.24582C44.4884 7.18501 44.5098 7.09543 44.5098 7H43.5098ZM43.471 7.0891L38.927 17.5691L39.8445 17.9669L44.3885 7.4869L43.471 7.0891ZM38.9262 17.571C38.926 17.5715 38.9259 17.5717 38.9258 17.5719C38.9257 17.5721 38.9257 17.5721 38.9257 17.5721C38.9257 17.5721 38.9257 17.5721 38.9257 17.5721C38.9257 17.5721 38.9257 17.572 38.9257 17.572C38.9257 17.572 38.9257 17.572 38.9257 17.572C38.9257 17.572 38.9257 17.572 38.9257 17.572C38.9257 17.572 38.9257 17.572 38.9258 17.572C38.9258 17.572 38.9258 17.572 38.9258 17.572C38.9258 17.572 38.9258 17.572 38.9258 17.572C38.9258 17.572 38.9258 17.572 38.9258 17.572C38.9258 17.572 38.9258 17.572 38.9257 17.572C38.9257 17.572 38.9257 17.572 38.9257 17.572C38.9257 17.572 38.9257 17.572 38.9257 17.572C38.9257 17.572 38.9257 17.572 38.9257 17.572C38.9257 17.5721 38.9257 17.5721 38.9256 17.5722C38.9255 17.5723 38.9254 17.5725 38.9251 17.5728C38.9245 17.5733 38.9235 17.5744 38.9217 17.5759L39.5618 18.3441C39.6848 18.2416 39.7814 18.114 39.8453 17.965L38.9262 17.571ZM38.8882 17.6064C38.9284 17.5663 38.9684 17.5491 38.9886 17.5428C39.0066 17.5371 39.0087 17.54 38.9858 17.54V18.54C39.1639 18.54 39.4074 18.5015 39.5953 18.3136L38.8882 17.6064ZM38.9858 17.54H38.2338V18.54H38.9858V17.54Z" fill="#800080" mask="url(#path-1-outside-1_287_585)"/>
</svg>
