<svg width="208" height="58" viewBox="0 0 208 58" fill="none" xmlns="http://www.w3.org/2000/svg">
<path d="M30.2503 0.267512C24.0262 1.80267 20.283 8.25334 23.9736 13.6589C26.7501 17.7253 29.5282 21.0237 25.0544 23.1781C22.1697 24.5675 18.8748 21.1969 19.3568 17.2445C19.9512 12.37 17.0462 7.62098 13.6591 6.62632C19.3706 19.4398 8.29068 27.9377 10.629 15.9088C6.88792 17.8467 6.57935 23.0147 9.23936 30.6848C4.25237 28.6139 2.43678 22.6458 4.51054 16.1684C0.0801489 19.5818 -2.07341 31.9298 2.70384 38.259C14.5145 53.906 28.3162 57.7906 30.7675 57.7906C33.3793 57.7906 45.2613 53.7311 54.1873 43.9291C59.3485 38.2612 60.478 23.5928 55.3262 14.5916C56.0649 17.642 54.5706 23.8369 51.1455 25.9134C51.7629 18.9572 50.6621 8.94314 46.6133 5.26045C50.643 26.0666 35.1241 23.5863 40.6378 17.2443C44.2831 13.0512 40.6168 4.90284 38.4761 3.71385C39.8218 8.78529 36.7171 12.1032 31.7168 11.111C28.3505 10.4431 26.1899 5.698 30.2502 0.267151L30.2503 0.267512ZM16.0254 25.7295H18.3338V45.6186L31.0225 52.3387L43.7106 45.6186V25.7331H46.0193V46.958L45.413 47.2779L31.5704 54.6039L31.0222 54.8974L30.4703 54.6039L16.6275 47.2778L16.0254 46.9581V25.7292V25.7295ZM20.6613 25.7556L29.7446 31.1174V48.975L20.6613 43.9857V25.7555V25.7556ZM41.3791 25.7556V43.9857L32.0529 49.1104V31.264L41.3791 25.7555V25.7556Z" fill="#1CD523"/>
<path d="M72.9298 43.2139V17.6122H89.5809V21.4999H77.5676V28.4504H88.7183V32.3382H77.5676V39.3261H89.6809V43.2139H72.9298ZM101.238 43.5514C99.7295 43.5514 98.3794 43.1639 97.1876 42.3888C95.9959 41.6138 95.0542 40.4887 94.3624 39.0136C93.6707 37.5385 93.3249 35.7467 93.3249 33.6382C93.3249 31.5048 93.6749 29.7046 94.3749 28.2379C95.0833 26.7628 96.0376 25.6502 97.2376 24.9002C98.4377 24.1418 99.7753 23.7626 101.25 23.7626C102.375 23.7626 103.301 23.9543 104.026 24.3376C104.751 24.7127 105.326 25.1668 105.751 25.7002C106.176 26.2253 106.505 26.7211 106.738 27.1878H106.926V17.6122H111.464V43.2139H107.013V40.1887H106.738C106.505 40.6554 106.167 41.1512 105.726 41.6763C105.284 42.193 104.701 42.6347 103.976 43.0014C103.251 43.368 102.338 43.5514 101.238 43.5514ZM102.5 39.8386C103.459 39.8386 104.276 39.5803 104.951 39.0636C105.626 38.5386 106.138 37.8093 106.488 36.876C106.838 35.9426 107.013 34.855 107.013 33.6132C107.013 32.3715 106.838 31.2923 106.488 30.3755C106.147 29.4588 105.638 28.7462 104.963 28.2379C104.296 27.7295 103.476 27.4753 102.5 27.4753C101.492 27.4753 100.65 27.7378 99.9753 28.2629C99.3003 28.7879 98.7919 29.513 98.4502 30.438C98.1085 31.3631 97.9377 32.4215 97.9377 33.6132C97.9377 34.8133 98.1085 35.8842 98.4502 36.8259C98.8002 37.7593 99.3128 38.4969 99.9878 39.0386C100.671 39.572 101.509 39.8386 102.5 39.8386ZM128.524 35.1383V24.0126H133.049V43.2139H128.662V39.8011H128.462C128.028 40.8762 127.316 41.7554 126.324 42.4388C125.341 43.1222 124.128 43.4639 122.686 43.4639C121.428 43.4639 120.315 43.1847 119.348 42.6263C118.39 42.0596 117.64 41.2387 117.098 40.1637C116.557 39.0803 116.286 37.7718 116.286 36.2384V24.0126H120.811V35.5384C120.811 36.7551 121.144 37.7218 121.811 38.4386C122.478 39.1553 123.353 39.5136 124.436 39.5136C125.103 39.5136 125.749 39.3511 126.374 39.0261C126.999 38.7011 127.511 38.2177 127.912 37.576C128.32 36.926 128.524 36.1134 128.524 35.1383Z" fill="black"/>
<path d="M152.879 29.0879L148.754 29.538C148.637 29.1213 148.433 28.7296 148.141 28.3629C147.858 27.9962 147.474 27.7003 146.991 27.4753C146.508 27.2503 145.916 27.1378 145.216 27.1378C144.274 27.1378 143.482 27.342 142.841 27.7504C142.207 28.1587 141.895 28.6879 141.903 29.338C141.895 29.8963 142.099 30.3505 142.516 30.7005C142.941 31.0506 143.641 31.3381 144.616 31.5631L147.891 32.2631C149.708 32.6548 151.058 33.2757 151.941 34.1258C152.833 34.9758 153.283 36.0884 153.291 37.4635C153.283 38.6719 152.929 39.7386 152.229 40.6637C151.537 41.5804 150.574 42.2971 149.341 42.8138C148.108 43.3305 146.691 43.5889 145.091 43.5889C142.741 43.5889 140.849 43.0972 139.415 42.1138C137.982 41.1221 137.128 39.7428 136.853 37.976L141.266 37.551C141.466 38.4177 141.891 39.0719 142.541 39.5136C143.191 39.9553 144.037 40.1762 145.078 40.1762C146.153 40.1762 147.016 39.9553 147.666 39.5136C148.324 39.0719 148.654 38.5261 148.654 37.876C148.654 37.326 148.441 36.8718 148.016 36.5134C147.599 36.1551 146.949 35.8801 146.066 35.6884L142.791 35.0008C140.949 34.6175 139.586 33.9716 138.703 33.0632C137.819 32.1465 137.382 30.9881 137.39 29.588C137.382 28.4046 137.703 27.3795 138.353 26.5128C139.011 25.6377 139.924 24.9627 141.091 24.4876C142.266 24.0043 143.62 23.7626 145.153 23.7626C147.403 23.7626 149.174 24.2418 150.466 25.2002C151.766 26.1586 152.57 27.4545 152.879 29.0879ZM157.023 43.2139V24.0126H161.548V43.2139H157.023ZM159.298 21.2874C158.581 21.2874 157.965 21.0499 157.448 20.5749C156.931 20.0915 156.673 19.5123 156.673 18.8373C156.673 18.1539 156.931 17.5747 157.448 17.0997C157.965 16.6163 158.581 16.3746 159.298 16.3746C160.023 16.3746 160.64 16.6163 161.148 17.0997C161.665 17.5747 161.923 18.1539 161.923 18.8373C161.923 19.5123 161.665 20.0915 161.148 20.5749C160.64 21.0499 160.023 21.2874 159.298 21.2874ZM174.577 43.5889C172.702 43.5889 171.077 43.1764 169.702 42.3513C168.327 41.5263 167.26 40.372 166.502 38.8886C165.752 37.4052 165.376 35.6717 165.376 33.6882C165.376 31.7048 165.752 29.9672 166.502 28.4754C167.26 26.9836 168.327 25.8252 169.702 25.0002C171.077 24.1751 172.702 23.7626 174.577 23.7626C176.452 23.7626 178.077 24.1751 179.452 25.0002C180.827 25.8252 181.89 26.9836 182.64 28.4754C183.398 29.9672 183.778 31.7048 183.778 33.6882C183.778 35.6717 183.398 37.4052 182.64 38.8886C181.89 40.372 180.827 41.5263 179.452 42.3513C178.077 43.1764 176.452 43.5889 174.577 43.5889ZM174.602 39.9637C175.619 39.9637 176.469 39.6845 177.152 39.1261C177.836 38.5594 178.344 37.801 178.677 36.8509C179.019 35.9009 179.19 34.8425 179.19 33.6757C179.19 32.5007 179.019 31.4381 178.677 30.488C178.344 29.5296 177.836 28.7671 177.152 28.2004C176.469 27.6337 175.619 27.3503 174.602 27.3503C173.56 27.3503 172.694 27.6337 172.002 28.2004C171.319 28.7671 170.806 29.5296 170.464 30.488C170.131 31.4381 169.964 32.5007 169.964 33.6757C169.964 34.8425 170.131 35.9009 170.464 36.8509C170.806 37.801 171.319 38.5594 172.002 39.1261C172.694 39.6845 173.56 39.9637 174.602 39.9637ZM192.144 31.9631V43.2139H187.619V24.0126H191.944V27.2753H192.169C192.611 26.2002 193.315 25.346 194.282 24.7127C195.257 24.0793 196.461 23.7626 197.894 23.7626C199.219 23.7626 200.374 24.0459 201.357 24.6126C202.349 25.1793 203.115 26.0002 203.657 27.0753C204.207 28.1504 204.478 29.4546 204.47 30.9881V43.2139H199.944V31.6881C199.944 30.4047 199.611 29.4005 198.944 28.6754C198.286 27.9504 197.373 27.5878 196.207 27.5878C195.415 27.5878 194.711 27.7629 194.094 28.1129C193.486 28.4546 193.006 28.9504 192.656 29.6005C192.315 30.2505 192.144 31.0381 192.144 31.9631Z" fill="#1CD523"/>
</svg>
